<svg height="464pt" viewBox="0 -16 464 464" width="464pt" xmlns="http://www.w3.org/2000/svg"><path d="m464 122.480469c.003906-41.351563-11.042969-81.953125-32-117.601563v235.121094h32zm0 0"/><path d="m432 256h24v176h-24zm0 0"/><path d="m328 208c0 48.601562-39.398438 88-88 88s-88-39.398438-88-88 39.398438-88 88-88 88 39.398438 88 88zm0 0"/><path d="m240 56c-83.949219 0-152 68.050781-152 152s68.050781 152 152 152 152-68.050781 152-152c-.09375-83.910156-68.089844-151.90625-152-152zm0 256c-57.4375 0-104-46.5625-104-104s46.5625-104 104-104 104 46.5625 104 104c-.066406 57.410156-46.589844 103.933594-104 104zm0 0"/><path d="m72 0c-4.417969 0-8 3.582031-8 8v64c-.042969 10.132812-6.445312 19.148438-16 22.527344v-86.527344c0-4.417969-3.582031-8-8-8s-8 3.582031-8 8v86.527344c-9.554688-3.378906-15.957031-12.394532-16-22.527344v-64c0-4.417969-3.582031-8-8-8s-8 3.582031-8 8v64c.0234375 19 13.386719 35.371094 32 39.199219v112.800781h-8v208h32v-208h-8v-112.800781c18.613281-3.828125 31.976562-20.199219 32-39.199219v-64c0-4.417969-3.582031-8-8-8zm0 0"/></svg>